<?xml version="1.0" encoding="UTF-8"?>
<level>
  <owner>wolskp</owner>
  <repo>subdominant-1-4-5</repo>
  <version>v1.0.1</version>
  <next number="1" owner="stolbitsa" repo="subdominant-low-4"/>
  <readme>
    <ru>cc14b1232e6ea80bca7672b65525fea9d0ea620bae0ccb8e8cc4a03957800fba</ru>
    <en>8ac60c816f8b6ae1f152e7fd5ac2bdf0b832d30bcabe7f62e4014b5456c6c4f3</en>
  </readme>
  <license>b1b99f5538d1fd3702219bff50c665196dfa42f6ee755c37fe41a6178d6bc6e5</license>
  <exercise number="1">
    <scale>major</scale>
    <bpm>80</bpm>
    <lowestNote>1</lowestNote>
    <tonalities>7</tonalities>
    <notes>
      <note number="1" values="1,4,5,18" ticks="0" durationTicks="105" ppq="96" velocity="0.843"/>
      <note number="2" values="1,4,5,18" ticks="56" durationTicks="91" ppq="96" velocity="0.913"/>
      <note number="3" values="1,4,5,18" ticks="146" durationTicks="208" ppq="96" velocity="0.874"/>
      <note number="4" values="1,4,5,18" ticks="196" durationTicks="161" ppq="96" velocity="0.921"/>
    </notes>
  </exercise>
  <exercise number="2">
    <scale>major</scale>
    <bpm>80</bpm>
    <lowestNote>1</lowestNote>
    <tonalities>7</tonalities>
    <notes>
      <note number="1" values="1,4,5,18" ticks="0" durationTicks="105" ppq="96" velocity="0.843"/>
      <note number="2" values="1,4,5,18" ticks="56" durationTicks="91" ppq="96" velocity="0.913"/>
      <note number="3" values="1,4,5,18" ticks="146" durationTicks="208" ppq="96" velocity="0.874"/>
      <note number="4" values="1,4,5,18" ticks="196" durationTicks="161" ppq="96" velocity="0.921"/>
    </notes>
  </exercise>
  <exercise number="3">
    <scale>major</scale>
    <bpm>80</bpm>
    <lowestNote>1</lowestNote>
    <tonalities>7</tonalities>
    <notes>
      <note number="1" values="1,4,5,18" ticks="0" durationTicks="105" ppq="96" velocity="0.843"/>
      <note number="2" values="1,4,5,18" ticks="56" durationTicks="91" ppq="96" velocity="0.913"/>
      <note number="3" values="1,4,5,18" ticks="146" durationTicks="208" ppq="96" velocity="0.874"/>
      <note number="4" values="1,4,5,18" ticks="196" durationTicks="161" ppq="96" velocity="0.921"/>
    </notes>
  </exercise>
  <exercise number="4">
    <scale>major</scale>
    <bpm>80</bpm>
    <lowestNote>1</lowestNote>
    <tonalities>7</tonalities>
    <notes>
      <note number="1" values="1,4,5,18" ticks="0" durationTicks="105" ppq="96" velocity="0.843"/>
      <note number="2" values="1,4,5,18" ticks="56" durationTicks="91" ppq="96" velocity="0.913"/>
      <note number="3" values="1,4,5,18" ticks="146" durationTicks="208" ppq="96" velocity="0.874"/>
      <note number="4" values="1,4,5,18" ticks="196" durationTicks="161" ppq="96" velocity="0.921"/>
    </notes>
  </exercise>
  <exercise number="5">
    <scale>major</scale>
    <bpm>80</bpm>
    <lowestNote>58</lowestNote>
    <tonalities>7</tonalities>
    <notes>
      <note number="1" values="58,188,488,588" ticks="0" durationTicks="105" ppq="96" velocity="0.843"/>
      <note number="2" values="58,188,488,588" ticks="56" durationTicks="91" ppq="96" velocity="0.913"/>
      <note number="3" values="58,188,488,588" ticks="146" durationTicks="208" ppq="96" velocity="0.874"/>
      <note number="4" values="58,188,488,588" ticks="196" durationTicks="161" ppq="96" velocity="0.921"/>
    </notes>
  </exercise>
  <exercise number="6">
    <scale>major</scale>
    <bpm>80</bpm>
    <lowestNote>58</lowestNote>
    <tonalities>7</tonalities>
    <notes>
      <note number="1" values="58,188,488,588" ticks="0" durationTicks="105" ppq="96" velocity="0.843"/>
      <note number="2" values="58,188,488,588" ticks="56" durationTicks="91" ppq="96" velocity="0.913"/>
      <note number="3" values="58,188,488,588" ticks="146" durationTicks="208" ppq="96" velocity="0.874"/>
      <note number="4" values="58,188,488,588" ticks="196" durationTicks="161" ppq="96" velocity="0.921"/>
    </notes>
  </exercise>
  <exercise number="7">
    <scale>major</scale>
    <bpm>80</bpm>
    <lowestNote>48</lowestNote>
    <tonalities>7</tonalities>
    <notes>
      <note number="1" values="48,58,188,488" ticks="0" durationTicks="105" ppq="96" velocity="0.843"/>
      <note number="2" values="48,58,188,488" ticks="56" durationTicks="91" ppq="96" velocity="0.913"/>
      <note number="3" values="48,58,188,488" ticks="146" durationTicks="208" ppq="96" velocity="0.874"/>
      <note number="4" values="48,58,188,488" ticks="196" durationTicks="161" ppq="96" velocity="0.921"/>
    </notes>
  </exercise>
  <exercise number="8">
    <scale>major</scale>
    <bpm>80</bpm>
    <lowestNote>48</lowestNote>
    <tonalities>7</tonalities>
    <notes>
      <note number="1" values="48,58,188,488" ticks="0" durationTicks="105" ppq="96" velocity="0.843"/>
      <note number="2" values="48,58,188,488" ticks="56" durationTicks="91" ppq="96" velocity="0.913"/>
      <note number="3" values="48,58,188,488" ticks="146" durationTicks="208" ppq="96" velocity="0.874"/>
      <note number="4" values="48,58,188,488" ticks="196" durationTicks="161" ppq="96" velocity="0.921"/>
    </notes>
  </exercise>
  <exercise number="9">
    <scale>major</scale>
    <bpm>80</bpm>
    <lowestNote>85</lowestNote>
    <tonalities>7</tonalities>
    <notes>
      <note number="1" values="1,4,5,85" ticks="0" durationTicks="105" ppq="96" velocity="0.843"/>
      <note number="2" values="1,4,5,85" ticks="56" durationTicks="91" ppq="96" velocity="0.913"/>
      <note number="3" values="1,4,5,85" ticks="146" durationTicks="208" ppq="96" velocity="0.874"/>
      <note number="4" values="1,4,5,85" ticks="196" durationTicks="161" ppq="96" velocity="0.921"/>
    </notes>
  </exercise>
  <exercise number="10">
    <scale>major</scale>
    <bpm>80</bpm>
    <lowestNote>85</lowestNote>
    <tonalities>7</tonalities>
    <notes>
      <note number="1" values="1,4,5,85" ticks="0" durationTicks="105" ppq="96" velocity="0.843"/>
      <note number="2" values="1,4,5,85" ticks="56" durationTicks="91" ppq="96" velocity="0.913"/>
      <note number="3" values="1,4,5,85" ticks="146" durationTicks="208" ppq="96" velocity="0.874"/>
      <note number="4" values="1,4,5,85" ticks="196" durationTicks="161" ppq="96" velocity="0.921"/>
    </notes>
  </exercise>
  <exercise number="11">
    <scale>major</scale>
    <bpm>80</bpm>
    <lowestNote>84</lowestNote>
    <tonalities>7</tonalities>
    <notes>
      <note number="1" values="1,4,84,85" ticks="0" durationTicks="105" ppq="96" velocity="0.843"/>
      <note number="2" values="1,4,84,85" ticks="56" durationTicks="91" ppq="96" velocity="0.913"/>
      <note number="3" values="1,4,84,85" ticks="146" durationTicks="208" ppq="96" velocity="0.874"/>
      <note number="4" values="1,4,84,85" ticks="196" durationTicks="161" ppq="96" velocity="0.921"/>
    </notes>
  </exercise>
  <exercise number="12">
    <scale>major</scale>
    <bpm>80</bpm>
    <lowestNote>84</lowestNote>
    <tonalities>7</tonalities>
    <notes>
      <note number="1" values="1,4,84,85" ticks="0" durationTicks="105" ppq="96" velocity="0.843"/>
      <note number="2" values="1,4,84,85" ticks="56" durationTicks="91" ppq="96" velocity="0.913"/>
      <note number="3" values="1,4,84,85" ticks="146" durationTicks="208" ppq="96" velocity="0.874"/>
      <note number="4" values="1,4,84,85" ticks="196" durationTicks="161" ppq="96" velocity="0.921"/>
    </notes>
  </exercise>
</level>
